<svg xmlns="http://www.w3.org/2000/svg" viewBox="0 0 1200 630" role="img" aria-label="Canvascope AI study workspace for students">
  <rect width="1200" height="630" fill="#fbfbf9"/>
  <rect x="72" y="72" width="1056" height="486" rx="28" fill="#ffffff" stroke="#e7e7e4" stroke-width="2"/>
  <text x="112" y="172" fill="#1f5eff" font-family="-apple-system, BlinkMacSystemFont, 'Segoe UI', Helvetica, Arial, sans-serif" font-size="34" font-weight="800" letter-spacing="5">CANVASCOPE</text>
  <text x="112" y="282" fill="#16181d" font-family="-apple-system, BlinkMacSystemFont, 'Segoe UI', Helvetica, Arial, sans-serif" font-size="64" font-weight="800">AI study workspace</text>
  <text x="112" y="356" fill="#16181d" font-family="-apple-system, BlinkMacSystemFont, 'Segoe UI', Helvetica, Arial, sans-serif" font-size="64" font-weight="800">for students</text>
  <text x="112" y="438" fill="#6b7280" font-family="-apple-system, BlinkMacSystemFont, 'Segoe UI', Helvetica, Arial, sans-serif" font-size="30">LMS search · Lectra iPad annotation · Smart Planner · DropBridge</text>
  <circle cx="1008" cy="174" r="46" fill="#1f5eff"/>
  <path d="M982 174c0-15.2 10.8-26.6 26-26.6 9.5 0 17.6 4.6 22 11.9l-11.2 6.6c-2.2-3.9-6.1-6.2-10.8-6.2-7.9 0-13 5.9-13 14.3s5.1 14.3 13 14.3c4.9 0 8.8-2.2 11.2-6.2l11.2 6.4c-4.4 7.3-12.6 12.1-22.4 12.1-15.2 0-26-11.4-26-26.6z" fill="#ffffff"/>
</svg>
